<svg width="24" height="24" viewBox="0 0 24 24" fill="none" xmlns="http://www.w3.org/2000/svg">
<path fill-rule="evenodd" clip-rule="evenodd" d="M21.4549 5.41595C21.5499 5.56016 21.5923 5.73273 21.5748 5.90454C21.5573 6.07634 21.481 6.23685 21.3589 6.35895L12.1659 15.551C12.0719 15.6449 11.9545 15.7122 11.8259 15.746L8.00003 16.5961C7.87346 16.6291 7.73736 16.6303 7.61112 16.5961C7.48489 16.5618 7.36968 16.5925 7.27719 16.5C7.1847 16.4075 7.31126 16.343 7.27698 16.2168C7.24271 16.0905 7.24403 16.0164 7.27704 15.8898L8.08193 12.003C8.11183 11.8883 8.16682 11.7817 8.24293 11.691L17.4699 2.46995C17.6106 2.3295 17.8012 2.25061 17.9999 2.25061C18.1987 2.25061 18.3893 2.3295 18.5299 2.46995L21.3589 5.29795C21.3939 5.33479 21.426 5.37424 21.4549 5.41595ZM21.3589 5.82521L18 2.5L8.50003 12L8.00003 14L7.61112 16.2168L9.49951 15.8898L11.8259 15.2768L21.3589 5.82521Z" fill="#092147"/>
<path d="M20.5 17C20.7733 14.6639 21.0996 12.3499 21 10C20.9977 9.94462 20.9799 9.55164 21 9.5C20.9608 9.53917 21.0201 9.44836 21 9.5L21.003 8.83596C21.0299 8.80891 21.064 8.79021 21.1013 8.7821C21.1385 8.77399 21.1774 8.7768 21.2131 8.79022C21.2488 8.80363 21.2798 8.82707 21.3025 8.85771C21.3252 8.88835 21.3386 8.9249 21.341 8.96295C21.5257 11.7542 21.4554 14.5565 21.131 17.335C20.895 19.357 19.271 20.942 17.258 21.167C13.7633 21.5537 10.2367 21.5537 6.74201 21.167C4.73001 20.942 3.10501 19.357 2.86901 17.335C2.45512 13.7903 2.45512 10.2096 2.86901 6.66495C3.10501 4.64295 4.72901 3.05795 6.74201 2.83295C9.39446 2.54 12.0667 2.46876 14.731 2.61995C14.7691 2.62269 14.8057 2.6363 14.8363 2.65917C14.867 2.68203 14.8904 2.7132 14.9039 2.74898C14.9173 2.78475 14.9203 2.82364 14.9123 2.86103C14.9044 2.89842 14.8859 2.93275 14.859 2.95995L14 3C13.9612 3.03885 14.0511 2.97987 14 3C13.9489 3.02013 13.5549 3.00193 13.5 3C11.2768 2.92385 8.95293 2.98317 6.74201 3.2291C6.09595 3.3006 4.9627 4.04347 4.5 4.5C4.0373 4.95653 3.5 7 3.5 7C3.09886 10.4283 3.09886 13.7316 3.5 17.16C3.58017 17.805 4.0373 19.0435 4.5 19.5C4.9627 19.9565 6.26295 20.4285 6.90901 20.5C10.264 20.875 13.902 20.875 17.258 20.5C17.9041 20.4285 19.0373 19.9565 19.5 19.5C20.5 19 20.5 18 20.5 17Z" fill="#092147"/>
</svg>
