<svg width="18" height="18" viewBox="0 0 18 18" fill="none" xmlns="http://www.w3.org/2000/svg">
<path d="M8.51764 1.72014C10.0344 1.72014 11.2692 2.95493 11.2692 4.47173C11.2692 5.98853 10.0344 7.22334 8.51764 7.22334C7.00084 7.22334 5.76604 5.98853 5.76604 4.47173C5.76604 2.95493 7.00084 1.72014 8.51764 1.72014ZM8.51764 0.520142C6.33484 0.520142 4.56604 2.28893 4.56604 4.47173C4.56604 6.65453 6.33484 8.42334 8.51764 8.42334C10.7004 8.42334 12.4692 6.65453 12.4692 4.47173C12.4692 2.28893 10.7004 0.520142 8.51764 0.520142Z" fill="#19488E"/>
<path d="M13.4196 12.1493C14.7432 12.1493 15.8196 13.2257 15.8196 14.5493V15.0797C15.8196 15.7409 15.2808 16.2797 14.6196 16.2797H2.4C1.7388 16.2797 1.2 15.7409 1.2 15.0797V14.5493C1.2 13.2257 2.2764 12.1493 3.6 12.1493H13.4196ZM13.4196 10.9493H3.6C1.6116 10.9493 0 12.5609 0 14.5493V15.0797C0 16.4057 1.074 17.4797 2.4 17.4797H14.6196C15.9456 17.4797 17.0196 16.4057 17.0196 15.0797V14.5493C17.0196 12.5609 15.408 10.9493 13.4196 10.9493Z" fill="#19488E"/>
<path d="M16.1161 8.55779H13.0441C12.7129 8.55779 12.4441 8.28899 12.4441 7.95779C12.4441 7.62659 12.7129 7.35779 13.0441 7.35779H16.1161C16.4473 7.35779 16.7161 7.62659 16.7161 7.95779C16.7161 8.28899 16.4473 8.55779 16.1161 8.55779Z" fill="#19488E"/>
<path d="M14.5803 10.0938C14.2491 10.0938 13.9803 9.82497 13.9803 9.49377V6.42178C13.9803 6.09058 14.2491 5.82178 14.5803 5.82178C14.9115 5.82178 15.1803 6.09058 15.1803 6.42178V9.49377C15.1803 9.82497 14.9115 10.0938 14.5803 10.0938Z" fill="#19488E"/>
</svg>
