<svg width="24" height="24" viewBox="0 0 24 24" fill="none" xmlns="http://www.w3.org/2000/svg">
<path d="M8.67489 4.752C9.65049 4.752 10.4437 5.5452 10.4437 6.5208V8.72642C10.4437 9.70202 9.65049 10.4952 8.67489 10.4952H6.46929C5.49369 10.4952 4.70049 9.70202 4.70049 8.72642V6.5208C4.70049 5.5452 5.49369 4.752 6.46929 4.752H8.67489ZM8.67489 3.552H6.46929C4.83009 3.552 3.50049 4.8816 3.50049 6.5208V8.72642C3.50049 10.3656 4.83009 11.6952 6.46929 11.6952H8.67489C10.3141 11.6952 11.6437 10.3656 11.6437 8.72642V6.5208C11.6437 4.8816 10.3141 3.552 8.67489 3.552Z" fill="#19488E"/>
<path d="M10.4434 13.5048V17.5692C10.4434 18.4956 9.68982 19.2492 8.76342 19.2492H6.37902C5.45262 19.2492 4.69902 18.4956 4.69902 17.5692V15.1848C4.69902 14.2584 5.45262 13.5048 6.37902 13.5048H10.4434ZM10.4434 12.3048H6.37902C4.78902 12.3048 3.49902 13.5948 3.49902 15.1848V17.5692C3.49902 19.1592 4.78902 20.4492 6.37902 20.4492H8.76342C10.3534 20.4492 11.6434 19.1592 11.6434 17.5692V13.5048C11.6434 12.8424 11.1058 12.3048 10.4434 12.3048Z" fill="#19488E"/>
<path d="M17.5316 4.752C18.5072 4.752 19.3004 5.5452 19.3004 6.5208V8.72642C19.3004 9.70202 18.5072 10.4952 17.5316 10.4952H13.5572V6.5208C13.5572 5.5452 14.3504 4.752 15.326 4.752H17.5316ZM17.5316 3.552H15.326C13.6868 3.552 12.3572 4.8816 12.3572 6.5208V10.4952C12.3572 11.1576 12.8948 11.6952 13.5572 11.6952H17.5316C19.1708 11.6952 20.5004 10.3656 20.5004 8.72642V6.5208C20.5004 4.8816 19.1708 3.552 17.5316 3.552Z" fill="#19488E"/>
<path d="M17.5316 13.5048C18.5072 13.5048 19.3004 14.298 19.3004 15.2736V17.4792C19.3004 18.4548 18.5072 19.248 17.5316 19.248H15.326C14.3504 19.248 13.5572 18.4548 13.5572 17.4792V15.2736C13.5572 14.298 14.3504 13.5048 15.326 13.5048H17.5316ZM17.5316 12.3048H15.326C13.6868 12.3048 12.3572 13.6344 12.3572 15.2736V17.4792C12.3572 19.1184 13.6868 20.448 15.326 20.448H17.5316C19.1708 20.448 20.5004 19.1184 20.5004 17.4792V15.2736C20.5004 13.6344 19.1708 12.3048 17.5316 12.3048Z" fill="#19488E"/>
</svg>
