<svg width="24" height="24" viewBox="0 0 24 24" fill="none" xmlns="http://www.w3.org/2000/svg">
<path d="M12 4.65593C16.05 4.65593 19.3452 7.95113 19.3452 12.0011C19.3452 16.0487 16.0548 19.3415 12.0084 19.3463H12.0048C11.982 19.3451 11.9604 19.3451 11.9376 19.3451L10.728 19.3367V19.3463H6.10443C5.31003 19.3463 4.66443 18.7007 4.66443 17.9063V12.3215V12.2999L4.66324 12.2783L4.66204 12.2615C4.65844 12.1691 4.65483 12.0827 4.65483 12.0023C4.65483 11.9219 4.65844 11.8355 4.66204 11.7431L4.66324 11.7263L4.66443 11.7047V11.6903V11.6879C4.74483 9.79313 5.54284 8.02434 6.91324 6.70674C8.28604 5.38314 10.0932 4.65593 12 4.65593ZM12 3.45593C7.40283 3.45593 3.65643 7.08593 3.46443 11.6351H3.46324V11.6807C3.45964 11.7875 3.45483 11.8931 3.45483 12.0011C3.45483 12.1091 3.45844 12.2147 3.46324 12.3215V17.9063C3.46324 19.3643 4.64524 20.5463 6.10324 20.5463H11.9268V20.5439C11.9508 20.5439 11.9748 20.5463 12 20.5463C16.7196 20.5463 20.5452 16.7207 20.5452 12.0011C20.5452 7.28153 16.7196 3.45593 12 3.45593Z" fill="#19488E"/>
<path d="M10.4548 10.1531H7.16201C6.83081 10.1531 6.56201 9.88432 6.56201 9.55312C6.56201 9.22192 6.83081 8.95312 7.16201 8.95312H10.4548C10.786 8.95312 11.0548 9.22192 11.0548 9.55312C11.0548 9.88432 10.786 10.1531 10.4548 10.1531Z" fill="#19488E"/>
<path d="M13.8698 15.0083H7.16055C6.82935 15.0083 6.56055 14.7395 6.56055 14.4083C6.56055 14.0771 6.82935 13.8083 7.16055 13.8083H13.8698C14.201 13.8083 14.4698 14.0771 14.4698 14.4083C14.4698 14.7395 14.201 15.0083 13.8698 15.0083Z" fill="#19488E"/>
</svg>
