<svg width="18" height="16" viewBox="0 0 18 16" fill="none" xmlns="http://www.w3.org/2000/svg">
<path d="M15.0864 15.7628H2.92562C1.58522 15.7628 0.494423 14.6516 0.494423 13.2872V6.21079C0.486023 6.17119 0.482422 6.13038 0.482422 6.08838V2.82559C0.482422 1.39759 1.60802 0.237183 2.99282 0.237183H5.94122C6.66962 0.237183 7.36202 0.563606 7.83842 1.13121L8.35442 1.73838C8.94722 2.43438 9.81482 2.8364 10.7292 2.8364H15.0864C16.4268 2.8364 17.5176 3.94759 17.5176 5.31199V13.2884C17.5176 14.6528 16.4268 15.7628 15.0864 15.7628ZM1.68242 5.18838C1.69082 5.22798 1.69442 5.26879 1.69442 5.31079V13.2872C1.69442 13.9904 2.24642 14.5628 2.92562 14.5628H15.0864C15.7656 14.5628 16.3176 13.9904 16.3176 13.2872V5.31079C16.3176 4.60759 15.7656 4.0352 15.0864 4.0352H10.7304C9.46442 4.0352 8.26202 3.47958 7.44122 2.51478L6.92162 1.9052C6.67082 1.6064 6.31442 1.43598 5.94002 1.43598H2.99162C2.26922 1.43598 1.68122 2.05879 1.68122 2.82439V5.18838H1.68242Z" fill="#092147"/>
<path d="M14.0242 8.69597H10.5814C10.2502 8.69597 9.98145 8.42717 9.98145 8.09597C9.98145 7.76477 10.2502 7.49597 10.5814 7.49597H14.0242C14.3554 7.49597 14.6242 7.76477 14.6242 8.09597C14.6242 8.42717 14.3554 8.69597 14.0242 8.69597Z" fill="#092147"/>
</svg>
