<svg width="24" height="24" viewBox="0 0 24 24" fill="none" xmlns="http://www.w3.org/2000/svg">
<path d="M12.0071 4.72075C13.5239 4.72075 14.7587 5.95554 14.7587 7.47234C14.7587 8.98914 13.5239 10.224 12.0071 10.224C10.4903 10.224 9.25554 8.98914 9.25554 7.47234C9.25554 5.95554 10.4903 4.72075 12.0071 4.72075ZM12.0071 3.52075C9.82434 3.52075 8.05554 5.28954 8.05554 7.47234C8.05554 9.65514 9.82434 11.424 12.0071 11.424C14.1899 11.424 15.9587 9.65514 15.9587 7.47234C15.9587 5.28954 14.1899 3.52075 12.0071 3.52075Z" fill="#19488E"/>
<path d="M16.9091 15.15C18.2327 15.15 19.3091 16.2264 19.3091 17.55V18.0804C19.3091 18.7416 18.7703 19.2804 18.1091 19.2804H5.8895C5.2283 19.2804 4.6895 18.7416 4.6895 18.0804V17.55C4.6895 16.2264 5.7659 15.15 7.0895 15.15H16.9091ZM16.9091 13.95H7.0895C5.1011 13.95 3.4895 15.5616 3.4895 17.55V18.0804C3.4895 19.4064 4.5635 20.4804 5.8895 20.4804H18.1091C19.4351 20.4804 20.5091 19.4064 20.5091 18.0804V17.55C20.5091 15.5616 18.8975 13.95 16.9091 13.95Z" fill="#19488E"/>
</svg>
