<svg width="24" height="24" viewBox="0 0 24 24" fill="none" xmlns="http://www.w3.org/2000/svg">
<path fill-rule="evenodd" clip-rule="evenodd" d="M6.5 7L6.888 14L7.5 19.5V21.5C7.5 22 8.22429 22.4555 8.22429 22.4555C8.72429 22.4555 8.79623 22.4999 9 22.5H16.116C16.3198 22.4999 17 22.5 17 22C17 22 17.5 22 17.5 21.5L18.112 14L18.5 7H6.5ZM18.9027 6.7L18.112 21.119C18.0817 21.6278 17.8582 22.1059 17.4872 22.4555C17.1162 22.8051 16.6258 22.9999 16.116 23H8.884C8.37425 22.9999 7.88377 22.8051 7.51279 22.4555C7.14182 22.1059 6.91833 21.6278 6.888 21.119L6 6.7L4 7.4V6.7C4 6.56739 4.05268 6.44021 4.14645 6.34645C4.24021 6.25268 4.36739 6.2 4.5 6.2H20.5C20.6326 6.2 20.7598 6.25268 20.8536 6.34645C20.9473 6.44021 21 6.56739 21 6.7V7.4L18.9027 6.7ZM14.5 4C14.6326 4 14.7598 4.05268 14.8536 4.14645C14.9473 4.24021 15 4.36739 15 4.5L10 5V4.5C10 4.36739 10.0527 4.24021 10.1464 4.14645C10.2402 4.05268 10.3674 4 10.5 4H14.5ZM10 10H10.5L11 19H10.5L10 10ZM14.5 10H15L14.5 19H14L14.5 10Z" fill="#092147"/>
</svg>
